<?xml version="1.0" encoding="UTF-8" standalone="no"?>
<svg width="335px" height="30px" viewBox="0 0 335 30" version="1.1" xmlns="http://www.w3.org/2000/svg" xmlns:xlink="http://www.w3.org/1999/xlink" xmlns:sketch="http://www.bohemiancoding.com/sketch/ns">
    
    <g id="Page-1" stroke="none" stroke-width="1" fill="none" fill-rule="evenodd" sketch:type="MSPage">
        <g id="ps-logo" sketch:type="MSArtboardGroup">
            <g id="GoodType" sketch:type="MSLayerGroup" transform="translate(90.000000, 4.000000)">
                <path d="M0.994153846,0.727762238 L9.32676923,0.727762238 C16.0214126,0.727762238 20.228979,3.17358042 20.228979,8.76991608 C20.228979,14.3035385 16.0214126,16.769986 9.32676923,16.769986 L6.92220979,16.769986 L6.92220979,23.8590629 L0.994153846,23.8590629 L0.994153846,0.727762238 L0.994153846,0.727762238 Z M9.40928671,11.9616923 C12.7256643,11.9616923 14.0525455,11.0911329 14.0525455,8.76991608 C14.0525455,6.44787413 12.7256643,5.53605594 9.40928671,5.53605594 L6.92220979,5.53605594 L6.92220979,11.9616923 L9.40928671,11.9616923 L9.40928671,11.9616923 Z" id="Fill-13" fill="#DEEDF2" sketch:type="MSShapeGroup"></path>
                <path d="M24.151035,0.727762238 L41.1059021,0.727762238 L41.1059021,5.6193986 L30.0790909,5.6193986 L30.0790909,9.68173427 L38.9092867,9.68173427 L38.9092867,14.490028 L30.0790909,14.490028 L30.0790909,18.9674266 L41.1059021,18.9674266 L41.1059021,23.8590629 L24.151035,23.8590629 L24.151035,0.727762238" id="Fill-14" fill="#DEEDF2" sketch:type="MSShapeGroup"></path>
                <path d="M46.2888252,0.727762238 L54.6206154,0.727762238 C61.3160839,0.727762238 65.5228252,3.17358042 65.5228252,8.76991608 C65.5228252,10.5729231 65.087958,12.002951 64.1967692,13.0806294 C63.3055804,14.1583077 62.2064476,14.966979 60.8803916,15.5264476 L66.4767273,23.8590629 L59.7606294,23.8590629 L55.2840559,16.769986 L52.2160559,16.769986 L52.2160559,23.8590629 L46.2888252,23.8590629 L46.2888252,0.727762238 L46.2888252,0.727762238 Z M54.703958,11.9616923 C57.9576224,11.9616923 59.3463916,11.0911329 59.3463916,8.76991608 C59.3463916,6.44787413 57.9576224,5.53605594 54.703958,5.53605594 L52.2160559,5.53605594 L52.2160559,11.9616923 L54.703958,11.9616923 L54.703958,11.9616923 Z" id="Fill-15" fill="#DEEDF2" sketch:type="MSShapeGroup"></path>
                <path d="M85.2766853,16.6462098 C85.5052587,18.8015664 87.3916084,19.837986 89.8786853,19.837986 C92.3038741,19.837986 93.4021818,18.8634545 93.4021818,17.6405455 C93.4021818,16.5422378 92.6768531,15.7756503 90.7492448,15.2780699 L86.0647273,14.0757902 C81.8984196,12.9981119 79.804951,10.7387832 79.804951,7.27717483 C79.804951,2.73788811 83.6601678,0.312699301 89.0081259,0.312699301 C91.7435804,0.312699301 93.9616503,0.934881119 95.6606853,2.15779021 C97.3605455,3.3806993 98.3144476,5.26704895 98.5421958,7.77475524 L92.5728811,7.77475524 C92.407021,5.68128671 90.7698741,4.74883916 88.7176643,4.74883916 C86.7281678,4.74883916 85.6917483,5.55668531 85.6917483,6.82167832 C85.6917483,7.87872727 86.3551888,8.54134266 88.3446853,9.10163636 L92.9871189,10.3030909 C97.0288252,11.4022238 99.2881538,13.3917203 99.2881538,17.1017063 C99.2881538,21.8481119 95.2464476,24.2733007 89.546965,24.2733007 C86.3964476,24.2733007 83.93,23.5892308 82.1467972,22.2219161 C80.3644196,20.8537762 79.4113427,18.9880559 79.2661119,16.6462098 L85.2766853,16.6462098" id="Fill-16" fill="#009CDB" sketch:type="MSShapeGroup"></path>
                <path d="M124.300853,15.1534685 C123.865986,21.0815245 119.492559,24.2733007 113.605762,24.2733007 C106.683371,24.2733007 102.62021,19.7967273 102.62021,12.2934126 C102.62021,8.50008392 103.574112,5.55668531 105.50172,3.46321678 C107.429329,1.36974825 110.144154,0.312699301 113.647021,0.312699301 C119.533818,0.312699301 123.865986,3.5053007 124.300853,9.43253147 L118.29028,9.43253147 C118.228392,8.35485315 117.833958,7.42240559 117.067371,6.63436364 C116.300783,5.84714685 115.20165,5.45353846 113.730364,5.45353846 C109.709287,5.45353846 108.75621,8.93577622 108.75621,12.2934126 C108.75621,15.651049 109.709287,19.1332867 113.730364,19.1332867 C115.20165,19.1332867 116.300783,18.7396783 117.067371,17.9516364 C117.833958,17.1644196 118.228392,16.2311469 118.29028,15.1534685 L124.300853,15.1534685" id="Fill-17" fill="#009CDB" sketch:type="MSShapeGroup"></path>
                <path d="M129.029105,0.727762238 L134.957161,0.727762238 L134.957161,9.51587413 L143.620671,9.51587413 L143.620671,0.727762238 L149.548727,0.727762238 L149.548727,23.8590629 L143.620671,23.8590629 L143.620671,14.6146294 L134.957161,14.6146294 L134.957161,23.8590629 L129.029105,23.8590629 L129.029105,0.727762238" id="Fill-18" fill="#009CDB" sketch:type="MSShapeGroup"></path>
                <path d="M153.95021,12.2934126 C153.95021,5.14244755 157.722909,0.312699301 165.392084,0.312699301 C173.02,0.312699301 176.791049,5.14244755 176.791049,12.2934126 C176.791049,19.4443776 173.02,24.2733007 165.392084,24.2733007 C157.722909,24.2733007 153.95021,19.4443776 153.95021,12.2934126 L153.95021,12.2934126 Z M170.698783,12.2934126 C170.698783,8.89369231 169.703622,5.45353846 165.392084,5.45353846 C161.080545,5.45353846 160.085385,8.89369231 160.085385,12.2934126 C160.085385,15.7129371 161.080545,19.1332867 165.392084,19.1332867 C169.703622,19.1332867 170.698783,15.7129371 170.698783,12.2934126 L170.698783,12.2934126 Z" id="Fill-19" fill="#009CDB" sketch:type="MSShapeGroup"></path>
                <path d="M181.234615,0.727762238 L187.162671,0.727762238 L187.162671,18.7603077 L197.153063,18.7603077 L197.153063,23.8590629 L181.234615,23.8590629 L181.234615,0.727762238" id="Fill-20" fill="#009CDB" sketch:type="MSShapeGroup"></path>
                <path d="M208.196378,0.727762238 L214.704531,0.727762238 L223.161748,23.8590629 L216.98449,23.8590629 L215.699692,20.0451049 L206.994098,20.0451049 L205.750559,23.8590629 L199.697902,23.8590629 L208.196378,0.727762238 L208.196378,0.727762238 Z M214.290294,15.651049 L211.305636,6.57247552 L208.362238,15.651049 L214.290294,15.651049 L214.290294,15.651049 Z" id="Fill-21" fill="#009CDB" sketch:type="MSShapeGroup"></path>
                <path d="M230.943972,16.6462098 C231.17172,18.8015664 233.05807,19.837986 235.545147,19.837986 C237.96951,19.837986 239.068643,18.8634545 239.068643,17.6405455 C239.068643,16.5422378 238.34414,15.7756503 236.415706,15.2780699 L231.731189,14.0757902 C227.565706,12.9981119 225.471413,10.7387832 225.471413,7.27717483 C225.471413,2.73788811 229.327455,0.312699301 234.674587,0.312699301 C237.410867,0.312699301 239.628112,0.934881119 241.328797,2.15779021 C243.027007,3.3806993 243.981734,5.26704895 244.209483,7.77475524 L238.239343,7.77475524 C238.074308,5.68128671 236.437161,4.74883916 234.384126,4.74883916 C232.394629,4.74883916 231.35821,5.55668531 231.35821,6.82167832 C231.35821,7.87872727 232.02165,8.54134266 234.011147,9.10163636 L238.654406,10.3030909 C242.695287,11.4022238 244.955441,13.3917203 244.955441,17.1017063 C244.955441,21.8481119 240.913734,24.2733007 235.213427,24.2733007 C232.062909,24.2733007 229.596462,23.5892308 227.814084,22.2219161 C226.030881,20.8537762 225.078629,18.9880559 224.933399,16.6462098 L230.943972,16.6462098" id="Fill-22" fill="#009CDB" sketch:type="MSShapeGroup"></path>
            </g>
            <g id="Hat-Copy" sketch:type="MSLayerGroup">
                <path d="M63.5758537,11.3956098 L69.8495122,10.7173171 L69.8495122,16.1641463 L63.5758537,17.8660976 L63.5758537,11.3956098" id="Fill-1" fill="#EF8824" sketch:type="MSShapeGroup"></path>
                <g id="Group-4" transform="translate(62.926829, 10.243902)">
                    <mask id="mask-2" sketch:name="Clip 3" fill="white">
                        <use xlink:href="#path-1"></use>
                    </mask>
                    <g id="Clip-3"></g>
                    <path d="M0.64902439,0.473414634 L6.92268293,0.473414634 L6.92268293,7.62219512 L0.64902439,7.62219512 L0.64902439,0.473414634 Z" id="Fill-2" fill="#EF8824" sketch:type="MSShapeGroup" mask="url(#mask-2)"></path>
                </g>
                <path d="M32.4943902,6.16902439 L71.274878,9.53853659 L69.2363415,9.05853659 L37.8,0.0680487805 L0.224634146,4.71439024 L26.4043902,13.1912195 L62.5939024,10.2234146 L31.8687805,6.87365854 L32.4943902,6.16902439 L32.4943902,6.16902439 Z M11.4365854,11.3604878 L26.3531707,16.3236585 L26.3531707,29.585122 L11.6970732,21.0614634 L11.4365854,11.3604878 L11.4365854,11.3604878 Z" id="Fill-5" fill="#009CDB" sketch:type="MSShapeGroup"></path>
                <g id="Group-8">
                    <mask id="mask-4" sketch:name="Clip 7" fill="white">
                        <use xlink:href="#path-3"></use>
                    </mask>
                    <g id="Clip-7"></g>
                    <path d="M0.224634146,0.0680487805 L71.2756098,0.0680487805 L71.2756098,29.585122 L0.224634146,29.585122 L0.224634146,0.0680487805 Z" id="Fill-6" fill="#009CDB" sketch:type="MSShapeGroup" mask="url(#mask-4)"></path>
                </g>
                <path d="M54.7931707,20.5668293 L26.3531707,29.585122 L26.3531707,16.3236585 L54.7931707,12.5385366 L54.7931707,20.5668293" id="Fill-9" fill="#0079C0" sketch:type="MSShapeGroup"></path>
                <g id="Group-12" transform="translate(26.341463, 12.439024)">
                    <mask id="mask-6" sketch:name="Clip 11" fill="white">
                        <use xlink:href="#path-5"></use>
                    </mask>
                    <g id="Clip-11"></g>
                    <path d="M0.0117073171,0.0995121951 L28.4517073,0.0995121951 L28.4517073,17.1460976 L0.0117073171,17.1460976 L0.0117073171,0.0995121951 Z" id="Fill-10" fill="#0079C0" sketch:type="MSShapeGroup" mask="url(#mask-6)"></path>
                </g>
            </g>
        </g>
    </g>
</svg>
